<svg xmlns="http://www.w3.org/2000/svg" viewBox="0 0 1200 420" width="1200" height="420" role="img" aria-label="SOUL Atlas — a galaxy of souls: countless minds connected in one luminous map.">
  <defs>
    <radialGradient id="space" cx="0.5" cy="0.5" r="0.75">
      <stop offset="0" stop-color="#16224a"/><stop offset="0.4" stop-color="#0c1330"/>
      <stop offset="0.75" stop-color="#080a18"/><stop offset="1" stop-color="#05060c"/>
    </radialGradient>
    <radialGradient id="core" cx="0.5" cy="0.5" r="0.5">
      <stop offset="0" stop-color="#ffffff"/><stop offset="0.18" stop-color="#dbe7ff"/>
      <stop offset="0.45" stop-color="#4f86ff"/><stop offset="0.75" stop-color="#2546c8" stop-opacity="0.55"/>
      <stop offset="1" stop-color="#2546c8" stop-opacity="0"/>
    </radialGradient>
    <radialGradient id="nA" cx="0.5" cy="0.5" r="0.5"><stop offset="0" stop-color="#3b5bdb" stop-opacity="0.5"/><stop offset="1" stop-color="#3b5bdb" stop-opacity="0"/></radialGradient>
    <radialGradient id="nB" cx="0.5" cy="0.5" r="0.5"><stop offset="0" stop-color="#7c3aed" stop-opacity="0.45"/><stop offset="1" stop-color="#7c3aed" stop-opacity="0"/></radialGradient>
    <radialGradient id="nC" cx="0.5" cy="0.5" r="0.5"><stop offset="0" stop-color="#0e7490" stop-opacity="0.4"/><stop offset="1" stop-color="#0e7490" stop-opacity="0"/></radialGradient>
    <radialGradient id="vig" cx="0.5" cy="0.5" r="0.5"><stop offset="0.6" stop-color="#000000" stop-opacity="0"/><stop offset="1" stop-color="#000000" stop-opacity="0.55"/></radialGradient>
    <filter id="soft" x="-60%" y="-60%" width="220%" height="220%"><feGaussianBlur stdDeviation="2.4"/></filter>
    <filter id="glow" x="-120%" y="-120%" width="340%" height="340%"><feGaussianBlur stdDeviation="9"/></filter>
  </defs>

  <rect width="1200" height="420" fill="url(#space)"/>
  <ellipse cx="600" cy="212" rx="430" ry="250" fill="url(#nA)"/>
  <ellipse cx="330" cy="150" rx="260" ry="180" fill="url(#nB)"/>
  <ellipse cx="900" cy="280" rx="300" ry="200" fill="url(#nC)"/>

  <g><circle cx="957.02" cy="228.93" r="0.46" fill="#ffffff" opacity="0.28"/><circle cx="111.18" cy="372.08" r="0.33" fill="#ffffff" opacity="0.51"/><circle cx="741.09" cy="101.9" r="0.35" fill="#ffffff" opacity="0.82"/><circle cx="801.1" cy="285.77" r="1.29" fill="#ffffff" opacity="0.56"/><circle cx="1026.24" cy="209.24" r="0.48" fill="#ffffff" opacity="0.4"/><circle cx="1048.74" cy="232.94" r="1.13" fill="#ffffff" opacity="0.26"/><circle cx="166.84" cy="209.01" r="0.9" fill="#ffffff" opacity="0.25"/><circle cx="805.6" cy="86.13" r="1.23" fill="#ffffff" opacity="0.74"/><circle cx="119.68" cy="137.64" r="1.29" fill="#ffffff" opacity="0.8"/><circle cx="1130.08" cy="61.48" r="0.97" fill="#ffffff" opacity="0.23"/><circle cx="131.27" cy="263.06" r="0.85" fill="#ffffff" opacity="0.88"/><circle cx="396.6" cy="94.51" r="0.37" fill="#ffffff" opacity="0.82"/><circle cx="383.8" cy="406.41" r="0.74" fill="#ffffff" opacity="0.53"/><circle cx="671.36" cy="411.39" r="0.33" fill="#ffffff" opacity="0.4"/><circle cx="102.51" cy="232.14" r="1.01" fill="#ffffff" opacity="0.64"/><circle cx="1046.95" cy="283.3" r="0.31" fill="#ffffff" opacity="0.66"/><circle cx="1010.19" cy="316.56" r="0.68" fill="#ffffff" opacity="0.55"/><circle cx="60.83" cy="202.3" r="1.04" fill="#ffffff" opacity="0.62"/><circle cx="242.75" cy="361.03" r="1.03" fill="#ffffff" opacity="0.63"/><circle cx="794.26" cy="368.37" r="1.01" fill="#ffffff" opacity="0.59"/><circle cx="278.5" cy="334.04" r="0.83" fill="#ffffff" opacity="0.85"/><circle cx="710.08" cy="373.65" r="0.85" fill="#ffffff" opacity="0.61"/><circle cx="1038.8" cy="36.5" r="1.03" fill="#ffffff" opacity="0.37"/><circle cx="173.01" cy="43.24" r="0.37" fill="#ffffff" opacity="0.71"/><circle cx="710.9" cy="373.85" r="0.4" fill="#ffffff" opacity="0.46"/><circle cx="895.43" cy="228.6" r="1.36" fill="#ffffff" opacity="0.85"/><circle cx="1137.46" cy="27.83" r="0.64" fill="#ffffff" opacity="0.8"/><circle cx="841.57" cy="15.5" r="0.91" fill="#ffffff" opacity="0.21"/><circle cx="1135.54" cy="83.51" r="1.05" fill="#ffffff" opacity="0.25"/><circle cx="506.34" cy="78.61" r="1.28" fill="#ffffff" opacity="0.63"/><circle cx="874.17" cy="26.97" r="1.33" fill="#ffffff" opacity="0.85"/><circle cx="1037.16" cy="407.09" r="0.68" fill="#ffffff" opacity="0.52"/><circle cx="664.45" cy="353.79" r="1.07" fill="#ffffff" opacity="0.63"/><circle cx="958.73" cy="64.52" r="0.42" fill="#ffffff" opacity="0.35"/><circle cx="959.94" cy="245.53" r="0.54" fill="#ffffff" opacity="0.84"/><circle cx="133.6" cy="301.57" r="0.86" fill="#ffffff" opacity="0.4"/><circle cx="148.73" cy="70.86" r="0.49" fill="#ffffff" opacity="0.82"/><circle cx="393.81" cy="28.38" r="1.34" fill="#ffffff" opacity="0.3"/><circle cx="210.76" cy="132.7" r="1.31" fill="#ffffff" opacity="0.54"/><circle cx="161.87" cy="152.31" r="0.38" fill="#ffffff" opacity="0.52"/><circle cx="951.8" cy="247.95" r="0.46" fill="#ffffff" opacity="0.8"/><circle cx="1152.5" cy="101.43" r="1.05" fill="#ffffff" opacity="0.35"/><circle cx="412.09" cy="297.58" r="0.94" fill="#ffffff" opacity="0.73"/><circle cx="892.48" cy="295.55" r="0.39" fill="#ffffff" opacity="0.25"/><circle cx="983.63" cy="391.39" r="0.97" fill="#ffffff" opacity="0.36"/><circle cx="795.57" cy="312.18" r="1.12" fill="#ffffff" opacity="0.81"/><circle cx="86.17" cy="110.36" r="1.04" fill="#ffffff" opacity="0.52"/><circle cx="151.67" cy="355.83" r="1.26" fill="#ffffff" opacity="0.55"/><circle cx="1065.02" cy="13.29" r="1.28" fill="#ffffff" opacity="0.89"/><circle cx="870.59" cy="274.2" r="0.85" fill="#ffffff" opacity="0.74"/><circle cx="902.02" cy="215.03" r="1.4" fill="#ffffff" opacity="0.65"/><circle cx="254.95" cy="229.27" r="0.81" fill="#ffffff" opacity="0.85"/><circle cx="592.39" cy="412.85" r="0.86" fill="#ffffff" opacity="0.61"/><circle cx="52.99" cy="159.85" r="1.18" fill="#ffffff" opacity="0.45"/><circle cx="110.79" cy="151.96" r="1.1" fill="#ffffff" opacity="0.3"/><circle cx="931.97" cy="247.76" r="1.14" fill="#ffffff" opacity="0.52"/><circle cx="1048.05" cy="263.04" r="1.11" fill="#ffffff" opacity="0.53"/><circle cx="219.58" cy="248.12" r="0.78" fill="#ffffff" opacity="0.3"/><circle cx="1097.51" cy="390.91" r="0.88" fill="#ffffff" opacity="0.41"/><circle cx="1137.6" cy="90.89" r="0.66" fill="#ffffff" opacity="0.53"/><circle cx="208.9" cy="93.13" r="0.52" fill="#ffffff" opacity="0.63"/><circle cx="222.13" cy="164.74" r="0.79" fill="#ffffff" opacity="0.39"/><circle cx="994.37" cy="286.8" r="1.46" fill="#ffffff" opacity="0.28"/><circle cx="1091.12" cy="269.63" r="0.41" fill="#ffffff" opacity="0.41"/><circle cx="661.29" cy="313.28" r="0.78" fill="#ffffff" opacity="0.25"/><circle cx="1122.23" cy="350.67" r="0.31" fill="#ffffff" opacity="0.73"/><circle cx="512.99" cy="372.59" r="0.52" fill="#ffffff" opacity="0.64"/><circle cx="533.43" cy="103.1" r="0.95" fill="#ffffff" opacity="0.63"/><circle cx="1005.39" cy="109.18" r="0.78" fill="#ffffff" opacity="0.46"/><circle cx="362.2" cy="255.28" r="0.9" fill="#ffffff" opacity="0.46"/><circle cx="242.63" cy="395.23" r="0.38" fill="#ffffff" opacity="0.72"/><circle cx="765.13" cy="409.97" r="0.73" fill="#ffffff" opacity="0.2"/><circle cx="1003.86" cy="88.16" r="1.34" fill="#ffffff" opacity="0.35"/><circle cx="540.08" cy="350.26" r="0.74" fill="#ffffff" opacity="0.82"/><circle cx="484.86" cy="120.16" r="1.17" fill="#ffffff" opacity="0.57"/><circle cx="562.83" cy="315.19" r="1.1" fill="#ffffff" opacity="0.74"/><circle cx="145.55" cy="182.48" r="0.72" fill="#ffffff" opacity="0.45"/><circle cx="933.06" cy="35.6" r="1.21" fill="#ffffff" opacity="0.87"/><circle cx="618.61" cy="113.85" r="0.54" fill="#ffffff" opacity="0.36"/><circle cx="639.59" cy="406.13" r="1.31" fill="#ffffff" opacity="0.83"/><circle cx="1039.8" cy="263" r="0.46" fill="#ffffff" opacity="0.84"/><circle cx="828.4" cy="412.12" r="0.89" fill="#ffffff" opacity="0.83"/><circle cx="303.73" cy="19.93" r="1.1" fill="#ffffff" opacity="0.47"/><circle cx="434.07" cy="22.1" r="1.19" fill="#ffffff" opacity="0.4"/><circle cx="215.75" cy="329.94" r="0.89" fill="#ffffff" opacity="0.4"/><circle cx="903.69" cy="196.62" r="0.95" fill="#ffffff" opacity="0.28"/><circle cx="762.96" cy="28.92" r="1.18" fill="#ffffff" opacity="0.47"/><circle cx="745.78" cy="330.83" r="0.52" fill="#ffffff" opacity="0.77"/><circle cx="333.43" cy="191.29" r="1.02" fill="#ffffff" opacity="0.37"/><circle cx="586.72" cy="65.27" r="1.34" fill="#ffffff" opacity="0.49"/><circle cx="760.2" cy="338.28" r="0.41" fill="#ffffff" opacity="0.8"/><circle cx="45.97" cy="120.85" r="0.47" fill="#ffffff" opacity="0.9"/><circle cx="168.86" cy="178.28" r="1.39" fill="#ffffff" opacity="0.58"/><circle cx="961.32" cy="289.5" r="1.49" fill="#ffffff" opacity="0.3"/><circle cx="743.73" cy="17.9" r="0.6" fill="#ffffff" opacity="0.61"/><circle cx="1182.16" cy="254.86" r="1.09" fill="#ffffff" opacity="0.49"/><circle cx="423.41" cy="107.97" r="0.7" fill="#ffffff" opacity="0.85"/><circle cx="1179.01" cy="73.67" r="0.83" fill="#ffffff" opacity="0.24"/><circle cx="329.7" cy="416.41" r="0.79" fill="#ffffff" opacity="0.31"/><circle cx="133.95" cy="244.06" r="0.67" fill="#ffffff" opacity="0.28"/><circle cx="1146.47" cy="319.4" r="0.69" fill="#ffffff" opacity="0.55"/><circle cx="1046.96" cy="32.97" r="0.55" fill="#ffffff" opacity="0.76"/><circle cx="781.44" cy="339.44" r="0.69" fill="#ffffff" opacity="0.67"/><circle cx="957.14" cy="76.37" r="0.99" fill="#ffffff" opacity="0.71"/><circle cx="789.24" cy="303.59" r="0.76" fill="#ffffff" opacity="0.68"/><circle cx="739.45" cy="398.34" r="0.72" fill="#ffffff" opacity="0.26"/><circle cx="685.53" cy="31.23" r="0.35" fill="#ffffff" opacity="0.49"/><circle cx="203.97" cy="388.16" r="1.15" fill="#ffffff" opacity="0.29"/><circle cx="24.66" cy="371.28" r="0.3" fill="#ffffff" opacity="0.38"/><circle cx="793.09" cy="56.05" r="1.09" fill="#ffffff" opacity="0.31"/><circle cx="1137.58" cy="145.71" r="1.4" fill="#ffffff" opacity="0.22"/><circle cx="897.3" cy="121.78" r="1.21" fill="#ffffff" opacity="0.72"/><circle cx="470.94" cy="356.07" r="0.39" fill="#ffffff" opacity="0.75"/><circle cx="178.04" cy="201.78" r="0.68" fill="#ffffff" opacity="0.66"/><circle cx="34.34" cy="407.38" r="0.98" fill="#ffffff" opacity="0.6"/><circle cx="151.72" cy="56.35" r="0.8" fill="#ffffff" opacity="0.39"/><circle cx="908.36" cy="72.53" r="0.59" fill="#ffffff" opacity="0.23"/><circle cx="1165" cy="356.5" r="1.41" fill="#ffffff" opacity="0.68"/><circle cx="753.63" cy="409.28" r="0.73" fill="#ffffff" opacity="0.8"/><circle cx="1186.33" cy="307.09" r="1.38" fill="#ffffff" opacity="0.89"/><circle cx="64.87" cy="266.2" r="1.16" fill="#ffffff" opacity="0.79"/><circle cx="815.67" cy="16.18" r="1.32" fill="#ffffff" opacity="0.55"/><circle cx="766.05" cy="410.82" r="1.43" fill="#ffffff" opacity="0.3"/><circle cx="90.06" cy="320.16" r="1.31" fill="#ffffff" opacity="0.68"/><circle cx="775.23" cy="398.6" r="0.91" fill="#ffffff" opacity="0.79"/><circle cx="851.13" cy="327.7" r="0.93" fill="#ffffff" opacity="0.36"/><circle cx="274.95" cy="176.37" r="0.41" fill="#ffffff" opacity="0.36"/><circle cx="52.23" cy="112.79" r="0.72" fill="#ffffff" opacity="0.24"/><circle cx="419.5" cy="329.77" r="1.17" fill="#ffffff" opacity="0.52"/><circle cx="45.36" cy="51.91" r="0.33" fill="#ffffff" opacity="0.69"/><circle cx="328.58" cy="342.77" r="0.39" fill="#ffffff" opacity="0.7"/></g>
  <g transform="translate(600 212) rotate(-13)"><g transform="translate(-600 -212)"><circle cx="609.88" cy="213.78" r="1.46" fill="#dbe6ff" opacity="0.47"/><circle cx="620.27" cy="216.45" r="1.54" fill="#dbe6ff" opacity="0.5"/><circle cx="612.03" cy="214.36" r="0.89" fill="#dbe6ff" opacity="0.46"/><circle cx="624.25" cy="218.29" r="1.1" fill="#dbe6ff" opacity="0.33"/><circle cx="615.62" cy="217.79" r="0.68" fill="#dbe6ff" opacity="0.18"/><circle cx="620.2" cy="219.59" r="1.34" fill="#dbe6ff" opacity="0.57"/><circle cx="612.21" cy="216.93" r="0.77" fill="#dbe6ff" opacity="0.24"/><circle cx="610.32" cy="217.82" r="1.6" fill="#dbe6ff" opacity="0.29"/><circle cx="618.44" cy="220.39" r="1.62" fill="#dbe6ff" opacity="0.31"/><circle cx="609.58" cy="216.94" r="1.82" fill="#dbe6ff" opacity="0.45"/><circle cx="615.65" cy="221.24" r="1.38" fill="#dbe6ff" opacity="0.5"/><circle cx="606.05" cy="217.97" r="0.69" fill="#dbe6ff" opacity="0.19"/><circle cx="606.72" cy="218.4" r="1.72" fill="#dbe6ff" opacity="0.25"/><circle cx="608.94" cy="221.81" r="1.51" fill="#dbe6ff" opacity="0.27"/><circle cx="607.08" cy="224.45" r="0.64" fill="#dbe6ff" opacity="0.6"/><circle cx="603.55" cy="223.4" r="0.61" fill="#dbe6ff" opacity="0.66"/><circle cx="602.21" cy="217.92" r="1.41" fill="#dbe6ff" opacity="0.62"/><circle cx="600.88" cy="223.54" r="0.84" fill="#dbe6ff" opacity="0.67"/><circle cx="602.72" cy="222.61" r="1.16" fill="#dbe6ff" opacity="0.59"/><circle cx="599.05" cy="225.96" r="1.46" fill="#dbe6ff" opacity="0.53"/><circle cx="599.42" cy="218.97" r="0.59" fill="#dbe6ff" opacity="0.33"/><circle cx="597.06" cy="226.78" r="0.57" fill="#dbe6ff" opacity="0.64"/><circle cx="593.81" cy="225.93" r="1.74" fill="#dbe6ff" opacity="0.58"/><circle cx="592.47" cy="225.09" r="1.14" fill="#dbe6ff" opacity="0.38"/><circle cx="582.61" cy="225.67" r="1.52" fill="#dbe6ff" opacity="0.16"/><circle cx="589.64" cy="222.03" r="1.74" fill="#dbe6ff" opacity="0.58"/><circle cx="584.2" cy="222.4" r="1.46" fill="#dbe6ff" opacity="0.66"/><circle cx="581.46" cy="221.35" r="1.51" fill="#dbe6ff" opacity="0.58"/><circle cx="578.57" cy="221.99" r="0.6" fill="#dbe6ff" opacity="0.16"/><circle cx="574.23" cy="224.04" r="0.52" fill="#dbe6ff" opacity="0.62"/><circle cx="577.66" cy="220.73" r="1.74" fill="#dbe6ff" opacity="0.47"/><circle cx="581.35" cy="220.44" r="0.92" fill="#dbe6ff" opacity="0.35"/><circle cx="568.03" cy="221.03" r="0.8" fill="#dbe6ff" opacity="0.29"/><circle cx="577.65" cy="217.31" r="1.04" fill="#dbe6ff" opacity="0.67"/><circle cx="572.5" cy="216.66" r="1.37" fill="#dbe6ff" opacity="0.53"/><circle cx="562.55" cy="217.83" r="0.63" fill="#dbe6ff" opacity="0.57"/><circle cx="574.12" cy="216.95" r="1.23" fill="#dbe6ff" opacity="0.4"/><circle cx="575.98" cy="215.03" r="1.12" fill="#dbe6ff" opacity="0.6"/><circle cx="569.36" cy="214.07" r="1.67" fill="#dbe6ff" opacity="0.33"/><circle cx="571.9" cy="215.2" r="1.75" fill="#dbe6ff" opacity="0.17"/><circle cx="566.24" cy="211.77" r="1.32" fill="#dbe6ff" opacity="0.16"/><circle cx="556.42" cy="211.68" r="0.87" fill="#dbe6ff" opacity="0.38"/><circle cx="559.22" cy="213.13" r="0.7" fill="#dbe6ff" opacity="0.34"/><circle cx="556.04" cy="209.29" r="1.69" fill="#dbe6ff" opacity="0.48"/><circle cx="570.5" cy="210.81" r="1.35" fill="#dbe6ff" opacity="0.23"/><circle cx="556.51" cy="204.87" r="1.59" fill="#dbe6ff" opacity="0.36"/><circle cx="559.04" cy="203.93" r="1.63" fill="#dbe6ff" opacity="0.19"/><circle cx="562.09" cy="205.47" r="0.82" fill="#dbe6ff" opacity="0.49"/><circle cx="563.65" cy="202.09" r="0.92" fill="#dbe6ff" opacity="0.36"/><circle cx="566.62" cy="205.38" r="0.88" fill="#dbe6ff" opacity="0.54"/><circle cx="557.44" cy="201.73" r="1.65" fill="#dbe6ff" opacity="0.48"/><circle cx="575.75" cy="202.61" r="1" fill="#dbe6ff" opacity="0.55"/><circle cx="571.44" cy="201.52" r="0.81" fill="#dbe6ff" opacity="0.62"/><circle cx="577.77" cy="199.76" r="1.12" fill="#dbe6ff" opacity="0.41"/><circle cx="565.34" cy="196.07" r="0.61" fill="#dbe6ff" opacity="0.35"/><circle cx="576.57" cy="195.93" r="0.65" fill="#dbe6ff" opacity="0.6"/><circle cx="574.36" cy="197.19" r="1.54" fill="#dbe6ff" opacity="0.51"/><circle cx="574.8" cy="195.85" r="0.63" fill="#dbe6ff" opacity="0.52"/><circle cx="582.78" cy="195.59" r="0.88" fill="#dbe6ff" opacity="0.34"/><circle cx="582.42" cy="192.25" r="1.17" fill="#dbe6ff" opacity="0.51"/><circle cx="588.3" cy="194.91" r="0.84" fill="#dbe6ff" opacity="0.27"/><circle cx="585.45" cy="189.59" r="1.01" fill="#dbe6ff" opacity="0.38"/><circle cx="594.27" cy="190.42" r="0.59" fill="#dbe6ff" opacity="0.17"/><circle cx="592.14" cy="191.84" r="1.6" fill="#dbe6ff" opacity="0.24"/><circle cx="596.02" cy="189.76" r="0.52" fill="#dbe6ff" opacity="0.33"/><circle cx="603.04" cy="187.11" r="0.94" fill="#dbe6ff" opacity="0.26"/><circle cx="610.23" cy="191.08" r="1.58" fill="#dbe6ff" opacity="0.39"/><circle cx="614.96" cy="189.65" r="1.37" fill="#dbe6ff" opacity="0.19"/><circle cx="612.83" cy="185.98" r="1.2" fill="#dbe6ff" opacity="0.24"/><circle cx="622.51" cy="184.62" r="0.47" fill="#dbe6ff" opacity="0.42"/><circle cx="619.6" cy="186" r="1.55" fill="#dbe6ff" opacity="0.18"/><circle cx="623.4" cy="184.37" r="1.7" fill="#dbe6ff" opacity="0.34"/><circle cx="629.65" cy="186.54" r="1.62" fill="#dbe6ff" opacity="0.49"/><circle cx="632.29" cy="184.24" r="0.74" fill="#dbe6ff" opacity="0.4"/><circle cx="638.83" cy="191.51" r="0.66" fill="#dbe6ff" opacity="0.54"/><circle cx="640.29" cy="195.83" r="1.48" fill="#dbe6ff" opacity="0.55"/><circle cx="641.25" cy="192.75" r="0.85" fill="#dbe6ff" opacity="0.47"/><circle cx="646.4" cy="194.88" r="1.21" fill="#dbe6ff" opacity="0.28"/><circle cx="650.86" cy="195.13" r="1.02" fill="#dbe6ff" opacity="0.19"/><circle cx="655.24" cy="194.58" r="1.74" fill="#dbe6ff" opacity="0.2"/><circle cx="659.2" cy="193.53" r="1.07" fill="#dbe6ff" opacity="0.35"/><circle cx="670.96" cy="195.76" r="1.39" fill="#dbe6ff" opacity="0.5"/><circle cx="671.76" cy="198.32" r="0.84" fill="#dbe6ff" opacity="0.31"/><circle cx="674.33" cy="198.34" r="1.23" fill="#dbe6ff" opacity="0.25"/><circle cx="667.19" cy="206.8" r="0.84" fill="#dbe6ff" opacity="0.56"/><circle cx="664.49" cy="205.54" r="1.61" fill="#dbe6ff" opacity="0.57"/><circle cx="680" cy="207.57" r="1.47" fill="#dbe6ff" opacity="0.53"/><circle cx="672.09" cy="212.88" r="1.27" fill="#dbe6ff" opacity="0.5"/><circle cx="686.03" cy="210.82" r="0.65" fill="#dbe6ff" opacity="0.28"/><circle cx="689.35" cy="214.71" r="1.7" fill="#dbe6ff" opacity="0.64"/><circle cx="578.97" cy="218.37" r="1.49" fill="#dbe6ff" opacity="0.6"/><circle cx="585.92" cy="217.76" r="1.66" fill="#dbe6ff" opacity="0.21"/><circle cx="587.73" cy="215.92" r="1.05" fill="#dbe6ff" opacity="0.38"/><circle cx="584.15" cy="216.14" r="1.31" fill="#dbe6ff" opacity="0.63"/><circle cx="586.33" cy="215.16" r="1.47" fill="#dbe6ff" opacity="0.25"/><circle cx="580.48" cy="215.18" r="1.18" fill="#dbe6ff" opacity="0.26"/><circle cx="587.01" cy="214.2" r="0.84" fill="#dbe6ff" opacity="0.5"/><circle cx="573.51" cy="214.18" r="1.75" fill="#dbe6ff" opacity="0.62"/><circle cx="589.04" cy="212.65" r="1.41" fill="#dbe6ff" opacity="0.31"/><circle cx="571.14" cy="212.55" r="1.05" fill="#dbe6ff" opacity="0.48"/><circle cx="570.74" cy="213.6" r="1.35" fill="#dbe6ff" opacity="0.47"/><circle cx="582.07" cy="212.47" r="1.21" fill="#dbe6ff" opacity="0.63"/><circle cx="586.76" cy="211.25" r="1.59" fill="#dbe6ff" opacity="0.2"/><circle cx="586.86" cy="211.29" r="0.61" fill="#dbe6ff" opacity="0.62"/><circle cx="569.48" cy="207.4" r="1.14" fill="#dbe6ff" opacity="0.65"/><circle cx="584.87" cy="208.9" r="0.49" fill="#dbe6ff" opacity="0.61"/><circle cx="569.8" cy="206.33" r="0.63" fill="#dbe6ff" opacity="0.47"/><circle cx="574.48" cy="207.11" r="1.67" fill="#dbe6ff" opacity="0.51"/><circle cx="586.29" cy="208.82" r="1.48" fill="#dbe6ff" opacity="0.22"/><circle cx="583.32" cy="206.57" r="1.54" fill="#dbe6ff" opacity="0.2"/><circle cx="577.5" cy="202.99" r="1.48" fill="#dbe6ff" opacity="0.47"/><circle cx="582.42" cy="206.18" r="1.76" fill="#dbe6ff" opacity="0.66"/><circle cx="575.76" cy="202.86" r="1.71" fill="#dbe6ff" opacity="0.34"/><circle cx="585.9" cy="205.91" r="1.08" fill="#dbe6ff" opacity="0.17"/><circle cx="585.67" cy="204.47" r="1" fill="#dbe6ff" opacity="0.21"/><circle cx="588.72" cy="203.06" r="1.1" fill="#dbe6ff" opacity="0.5"/><circle cx="582.36" cy="197.83" r="1.73" fill="#dbe6ff" opacity="0.37"/><circle cx="583.77" cy="198.19" r="0.78" fill="#dbe6ff" opacity="0.65"/><circle cx="592.05" cy="201.77" r="0.58" fill="#dbe6ff" opacity="0.41"/><circle cx="591.58" cy="202.76" r="0.56" fill="#dbe6ff" opacity="0.18"/><circle cx="594.78" cy="198.65" r="1.53" fill="#dbe6ff" opacity="0.29"/><circle cx="597.48" cy="200.4" r="1.03" fill="#dbe6ff" opacity="0.25"/><circle cx="596.57" cy="202.66" r="1.77" fill="#dbe6ff" opacity="0.67"/><circle cx="602.57" cy="194.13" r="0.92" fill="#dbe6ff" opacity="0.28"/><circle cx="601.14" cy="202.02" r="0.85" fill="#dbe6ff" opacity="0.35"/><circle cx="604.59" cy="202.45" r="1.32" fill="#dbe6ff" opacity="0.42"/><circle cx="603.06" cy="198.71" r="1.62" fill="#dbe6ff" opacity="0.34"/><circle cx="607.97" cy="193.82" r="1.34" fill="#dbe6ff" opacity="0.61"/><circle cx="611.94" cy="198.4" r="0.98" fill="#dbe6ff" opacity="0.43"/><circle cx="614.37" cy="200.02" r="0.98" fill="#dbe6ff" opacity="0.63"/><circle cx="616.52" cy="198.04" r="1.15" fill="#dbe6ff" opacity="0.51"/><circle cx="616.34" cy="199.34" r="0.96" fill="#dbe6ff" opacity="0.16"/><circle cx="617.03" cy="199.31" r="0.53" fill="#dbe6ff" opacity="0.32"/><circle cx="627.95" cy="197.3" r="1.74" fill="#dbe6ff" opacity="0.45"/><circle cx="631.88" cy="196.84" r="0.85" fill="#dbe6ff" opacity="0.31"/><circle cx="626.02" cy="202.81" r="0.7" fill="#dbe6ff" opacity="0.48"/><circle cx="628.29" cy="201.5" r="1.3" fill="#dbe6ff" opacity="0.36"/><circle cx="626.19" cy="203.14" r="0.85" fill="#dbe6ff" opacity="0.25"/><circle cx="634.66" cy="201.66" r="0.9" fill="#dbe6ff" opacity="0.3"/><circle cx="642.71" cy="203.04" r="1.15" fill="#dbe6ff" opacity="0.46"/><circle cx="631.57" cy="207.24" r="0.54" fill="#dbe6ff" opacity="0.62"/><circle cx="640.44" cy="202.93" r="1.03" fill="#dbe6ff" opacity="0.21"/><circle cx="647.29" cy="205.19" r="1.4" fill="#dbe6ff" opacity="0.34"/><circle cx="637.69" cy="209.26" r="1.75" fill="#dbe6ff" opacity="0.29"/><circle cx="649.97" cy="206.05" r="1.3" fill="#dbe6ff" opacity="0.33"/><circle cx="644.92" cy="211.17" r="1.5" fill="#dbe6ff" opacity="0.47"/><circle cx="647.26" cy="209.8" r="0.7" fill="#dbe6ff" opacity="0.5"/><circle cx="649.07" cy="210.77" r="1.34" fill="#dbe6ff" opacity="0.41"/><circle cx="655.93" cy="214.65" r="1.38" fill="#dbe6ff" opacity="0.57"/><circle cx="639.62" cy="215.77" r="0.8" fill="#dbe6ff" opacity="0.16"/><circle cx="638.89" cy="215.71" r="0.67" fill="#dbe6ff" opacity="0.51"/><circle cx="647.34" cy="216.42" r="1.6" fill="#dbe6ff" opacity="0.37"/><circle cx="639.29" cy="219.63" r="0.68" fill="#dbe6ff" opacity="0.39"/><circle cx="638.49" cy="221.08" r="1.14" fill="#dbe6ff" opacity="0.2"/><circle cx="650.94" cy="223.92" r="0.67" fill="#dbe6ff" opacity="0.39"/><circle cx="641.02" cy="225.22" r="0.64" fill="#dbe6ff" opacity="0.64"/><circle cx="651.31" cy="228.76" r="1.49" fill="#dbe6ff" opacity="0.43"/><circle cx="637.64" cy="226.9" r="1.44" fill="#dbe6ff" opacity="0.57"/><circle cx="641.91" cy="232.06" r="1.65" fill="#dbe6ff" opacity="0.61"/><circle cx="642.18" cy="232.19" r="1.18" fill="#dbe6ff" opacity="0.16"/><circle cx="629.75" cy="232.75" r="1" fill="#dbe6ff" opacity="0.43"/><circle cx="633.68" cy="232.5" r="0.8" fill="#dbe6ff" opacity="0.64"/><circle cx="631.41" cy="237.25" r="1.2" fill="#dbe6ff" opacity="0.48"/><circle cx="628.29" cy="236.17" r="1.78" fill="#dbe6ff" opacity="0.21"/><circle cx="624.8" cy="236.78" r="0.96" fill="#dbe6ff" opacity="0.63"/><circle cx="624.98" cy="239.13" r="1.73" fill="#dbe6ff" opacity="0.52"/><circle cx="618.28" cy="237.75" r="0.49" fill="#dbe6ff" opacity="0.44"/><circle cx="615.95" cy="236.72" r="0.69" fill="#dbe6ff" opacity="0.62"/><circle cx="604.77" cy="241.64" r="0.68" fill="#dbe6ff" opacity="0.59"/><circle cx="606.18" cy="243.06" r="0.51" fill="#dbe6ff" opacity="0.26"/><circle cx="590.89" cy="246.5" r="1.41" fill="#dbe6ff" opacity="0.65"/><circle cx="589.17" cy="239.41" r="1.42" fill="#dbe6ff" opacity="0.48"/><circle cx="597.66" cy="241.58" r="0.64" fill="#dbe6ff" opacity="0.41"/><circle cx="587.61" cy="247.66" r="1.76" fill="#dbe6ff" opacity="0.19"/><circle cx="569.81" cy="246.36" r="0.6" fill="#dbe6ff" opacity="0.15"/><circle cx="571.31" cy="238.94" r="0.72" fill="#dbe6ff" opacity="0.49"/><circle cx="573.04" cy="245.26" r="1.45" fill="#dbe6ff" opacity="0.35"/><circle cx="556.91" cy="241.79" r="1.7" fill="#dbe6ff" opacity="0.28"/><circle cx="560.12" cy="244.78" r="1.22" fill="#dbe6ff" opacity="0.55"/><circle cx="550.66" cy="236.57" r="0.81" fill="#dbe6ff" opacity="0.29"/><circle cx="596.22" cy="203.63" r="1.64" fill="#dbe6ff" opacity="0.49"/><circle cx="598.4" cy="206.45" r="0.49" fill="#dbe6ff" opacity="0.46"/><circle cx="598.95" cy="206.97" r="0.64" fill="#dbe6ff" opacity="0.56"/><circle cx="599.5" cy="207.82" r="0.61" fill="#dbe6ff" opacity="0.44"/><circle cx="600.77" cy="208.01" r="0.56" fill="#dbe6ff" opacity="0.26"/><circle cx="604.16" cy="202.41" r="1.68" fill="#dbe6ff" opacity="0.39"/><circle cx="608.06" cy="201.08" r="1.68" fill="#dbe6ff" opacity="0.38"/><circle cx="605.86" cy="206.21" r="1.77" fill="#dbe6ff" opacity="0.66"/><circle cx="608.73" cy="204.43" r="1.38" fill="#dbe6ff" opacity="0.25"/><circle cx="605.9" cy="205.16" r="0.84" fill="#dbe6ff" opacity="0.29"/><circle cx="609.86" cy="203.57" r="1.57" fill="#dbe6ff" opacity="0.4"/><circle cx="610.54" cy="202.55" r="1.72" fill="#dbe6ff" opacity="0.17"/><circle cx="616.12" cy="202.1" r="1.33" fill="#dbe6ff" opacity="0.63"/><circle cx="617.95" cy="201.99" r="1.73" fill="#dbe6ff" opacity="0.44"/><circle cx="610.47" cy="206.71" r="1.58" fill="#dbe6ff" opacity="0.29"/><circle cx="621.88" cy="204.79" r="1.74" fill="#dbe6ff" opacity="0.58"/><circle cx="610.38" cy="207.86" r="1.6" fill="#dbe6ff" opacity="0.26"/><circle cx="622.77" cy="206.02" r="0.85" fill="#dbe6ff" opacity="0.45"/><circle cx="620.32" cy="205.72" r="1.44" fill="#dbe6ff" opacity="0.64"/><circle cx="618.61" cy="208.49" r="1.41" fill="#dbe6ff" opacity="0.2"/><circle cx="623.55" cy="206.79" r="1.55" fill="#dbe6ff" opacity="0.39"/><circle cx="633.96" cy="208.07" r="0.85" fill="#dbe6ff" opacity="0.62"/><circle cx="620.1" cy="208.92" r="1.69" fill="#dbe6ff" opacity="0.52"/><circle cx="619.02" cy="210.06" r="1.07" fill="#dbe6ff" opacity="0.61"/><circle cx="624.05" cy="210.13" r="0.58" fill="#dbe6ff" opacity="0.3"/><circle cx="626.03" cy="210.92" r="1.5" fill="#dbe6ff" opacity="0.41"/><circle cx="622.54" cy="211.02" r="1.73" fill="#dbe6ff" opacity="0.63"/><circle cx="623.88" cy="212.12" r="0.72" fill="#dbe6ff" opacity="0.63"/><circle cx="627.05" cy="213.66" r="0.85" fill="#dbe6ff" opacity="0.18"/><circle cx="619" cy="212.86" r="1.06" fill="#dbe6ff" opacity="0.2"/><circle cx="621.16" cy="215.01" r="0.75" fill="#dbe6ff" opacity="0.52"/><circle cx="622.05" cy="216.39" r="1.27" fill="#dbe6ff" opacity="0.4"/><circle cx="621.48" cy="217.17" r="0.92" fill="#dbe6ff" opacity="0.47"/><circle cx="631.1" cy="217.88" r="0.54" fill="#dbe6ff" opacity="0.32"/><circle cx="618.3" cy="217.33" r="1.16" fill="#dbe6ff" opacity="0.17"/><circle cx="623.64" cy="220.06" r="1.74" fill="#dbe6ff" opacity="0.51"/><circle cx="627.79" cy="221.86" r="1.38" fill="#dbe6ff" opacity="0.54"/><circle cx="632.1" cy="223.47" r="0.76" fill="#dbe6ff" opacity="0.23"/><circle cx="614.91" cy="221.19" r="0.94" fill="#dbe6ff" opacity="0.26"/><circle cx="619.65" cy="220.96" r="1.83" fill="#dbe6ff" opacity="0.45"/><circle cx="614.02" cy="222.45" r="0.65" fill="#dbe6ff" opacity="0.6"/><circle cx="617.23" cy="223.35" r="0.49" fill="#dbe6ff" opacity="0.17"/><circle cx="619.03" cy="226.03" r="1.29" fill="#dbe6ff" opacity="0.22"/><circle cx="615.16" cy="223.79" r="1.19" fill="#dbe6ff" opacity="0.24"/><circle cx="616.96" cy="229.91" r="1.79" fill="#dbe6ff" opacity="0.35"/><circle cx="610.13" cy="229.18" r="1.32" fill="#dbe6ff" opacity="0.21"/><circle cx="609.98" cy="228.5" r="1.37" fill="#dbe6ff" opacity="0.6"/><circle cx="605.41" cy="225.32" r="1.76" fill="#dbe6ff" opacity="0.6"/><circle cx="605.52" cy="229.9" r="0.81" fill="#dbe6ff" opacity="0.27"/><circle cx="600.01" cy="228.05" r="1.08" fill="#dbe6ff" opacity="0.17"/><circle cx="598.39" cy="231.42" r="1.18" fill="#dbe6ff" opacity="0.55"/><circle cx="595.32" cy="230.9" r="1.64" fill="#dbe6ff" opacity="0.5"/><circle cx="592.55" cy="233.22" r="1" fill="#dbe6ff" opacity="0.64"/><circle cx="591.66" cy="228.24" r="1.54" fill="#dbe6ff" opacity="0.37"/><circle cx="587.88" cy="229.89" r="1.48" fill="#dbe6ff" opacity="0.56"/><circle cx="576.87" cy="233.97" r="1.47" fill="#dbe6ff" opacity="0.19"/><circle cx="578.7" cy="227.31" r="1.64" fill="#dbe6ff" opacity="0.48"/><circle cx="583.28" cy="226.64" r="1.23" fill="#dbe6ff" opacity="0.62"/><circle cx="579.38" cy="227.07" r="1.51" fill="#dbe6ff" opacity="0.35"/><circle cx="565.59" cy="231.79" r="1.79" fill="#dbe6ff" opacity="0.25"/><circle cx="563.02" cy="229.3" r="1.31" fill="#dbe6ff" opacity="0.2"/><circle cx="566.37" cy="227.12" r="1.53" fill="#dbe6ff" opacity="0.58"/><circle cx="556.19" cy="228.27" r="1.32" fill="#dbe6ff" opacity="0.48"/><circle cx="551.65" cy="225.7" r="1.47" fill="#dbe6ff" opacity="0.47"/><circle cx="550.58" cy="222.17" r="1.22" fill="#dbe6ff" opacity="0.62"/><circle cx="551.79" cy="221.23" r="1.6" fill="#dbe6ff" opacity="0.62"/><circle cx="554.18" cy="220.2" r="0.69" fill="#dbe6ff" opacity="0.64"/><circle cx="543.64" cy="222.32" r="1.54" fill="#dbe6ff" opacity="0.55"/><circle cx="538.76" cy="216.37" r="1.55" fill="#dbe6ff" opacity="0.63"/><circle cx="542.86" cy="214.68" r="1.62" fill="#dbe6ff" opacity="0.17"/><circle cx="544.31" cy="217.78" r="1.1" fill="#dbe6ff" opacity="0.29"/><circle cx="538.65" cy="211.46" r="0.59" fill="#dbe6ff" opacity="0.25"/><circle cx="538.02" cy="213.29" r="0.69" fill="#dbe6ff" opacity="0.33"/><circle cx="546.77" cy="208.8" r="0.5" fill="#dbe6ff" opacity="0.2"/><circle cx="538.27" cy="206.41" r="0.88" fill="#dbe6ff" opacity="0.36"/><circle cx="539.46" cy="209.29" r="0.48" fill="#dbe6ff" opacity="0.53"/><circle cx="545.85" cy="203.56" r="0.71" fill="#dbe6ff" opacity="0.65"/><circle cx="535.38" cy="201.98" r="1.69" fill="#dbe6ff" opacity="0.4"/><circle cx="542.86" cy="199.65" r="0.88" fill="#dbe6ff" opacity="0.41"/><circle cx="532.65" cy="197.11" r="1.53" fill="#dbe6ff" opacity="0.19"/><circle cx="549.54" cy="196.35" r="1.42" fill="#dbe6ff" opacity="0.19"/><circle cx="543.94" cy="191.85" r="0.69" fill="#dbe6ff" opacity="0.65"/><circle cx="545.17" cy="196.74" r="1.23" fill="#dbe6ff" opacity="0.32"/><circle cx="540.71" cy="193.06" r="0.9" fill="#dbe6ff" opacity="0.42"/><circle cx="551.48" cy="189.7" r="0.69" fill="#dbe6ff" opacity="0.44"/><circle cx="558.64" cy="185.94" r="1.42" fill="#dbe6ff" opacity="0.35"/><circle cx="545.45" cy="184.04" r="1.77" fill="#dbe6ff" opacity="0.16"/><circle cx="555.23" cy="183.21" r="1.56" fill="#dbe6ff" opacity="0.4"/><circle cx="565.06" cy="180.02" r="1.18" fill="#dbe6ff" opacity="0.51"/><circle cx="569.78" cy="181.31" r="0.88" fill="#dbe6ff" opacity="0.39"/></g></g>

  <circle cx="600" cy="212" r="120" fill="url(#core)" opacity="0.55" filter="url(#glow)"/>
  <g transform="translate(600 212)"><ellipse rx="150" ry="64" transform="rotate(-16)" fill="none" stroke="#6f9bff" stroke-opacity="0.16"/><ellipse rx="230" ry="96" transform="rotate(12)" fill="none" stroke="#6f9bff" stroke-opacity="0.16"/><ellipse rx="320" ry="132" transform="rotate(-5)" fill="none" stroke="#6f9bff" stroke-opacity="0.16"/></g>

  <g><line x1="537.88" y1="241.33" x2="492.32" y2="202.9" stroke="#9db4e8" stroke-opacity="0.31" stroke-width="1"/><line x1="537.88" y1="241.33" x2="477.72" y2="229.16" stroke="#9db4e8" stroke-opacity="0.31" stroke-width="1"/><line x1="535.42" y1="177.56" x2="523.38" y2="170.36" stroke="#9db4e8" stroke-opacity="0.34" stroke-width="1"/><line x1="535.42" y1="177.56" x2="570.77" y2="165.39" stroke="#9db4e8" stroke-opacity="0.32" stroke-width="1"/><line x1="644.64" y1="249.01" x2="620.12" y2="290.45" stroke="#9db4e8" stroke-opacity="0.32" stroke-width="1"/><line x1="644.64" y1="249.01" x2="659.64" y2="314.1" stroke="#9db4e8" stroke-opacity="0.3" stroke-width="1"/><line x1="570.77" y1="165.39" x2="605.47" y2="150.74" stroke="#9db4e8" stroke-opacity="0.32" stroke-width="1"/><line x1="570.77" y1="165.39" x2="600" y2="212" stroke="#6f9bff" stroke-opacity="0.12" stroke-width="1"/><line x1="492.32" y1="202.9" x2="477.72" y2="229.16" stroke="#9db4e8" stroke-opacity="0.33" stroke-width="1"/><line x1="492.32" y1="202.9" x2="523.38" y2="170.36" stroke="#9db4e8" stroke-opacity="0.32" stroke-width="1"/><line x1="605.47" y1="150.74" x2="590.62" y2="106.57" stroke="#9db4e8" stroke-opacity="0.32" stroke-width="1"/><line x1="735.94" y1="142.73" x2="758.75" y2="153.26" stroke="#9db4e8" stroke-opacity="0.33" stroke-width="1"/><line x1="735.94" y1="142.73" x2="757.26" y2="126.21" stroke="#9db4e8" stroke-opacity="0.33" stroke-width="1"/><line x1="735.94" y1="142.73" x2="600" y2="212" stroke="#6f9bff" stroke-opacity="0.12" stroke-width="1"/><line x1="450.13" y1="154.22" x2="423.97" y2="204.8" stroke="#9db4e8" stroke-opacity="0.31" stroke-width="1"/><line x1="656.4" y1="124.21" x2="670.83" y2="113.66" stroke="#9db4e8" stroke-opacity="0.34" stroke-width="1"/><line x1="656.4" y1="124.21" x2="690.32" y2="119.17" stroke="#9db4e8" stroke-opacity="0.33" stroke-width="1"/><line x1="720.22" y1="213.02" x2="786.22" y2="217.61" stroke="#9db4e8" stroke-opacity="0.3" stroke-width="1"/><line x1="720.22" y1="213.02" x2="758.75" y2="153.26" stroke="#9db4e8" stroke-opacity="0.3" stroke-width="1"/><line x1="539.56" y1="303.71" x2="520.3" y2="355.86" stroke="#9db4e8" stroke-opacity="0.31" stroke-width="1"/><line x1="786.22" y1="217.61" x2="758.75" y2="153.26" stroke="#9db4e8" stroke-opacity="0.3" stroke-width="1"/><line x1="620.12" y1="290.45" x2="659.64" y2="314.1" stroke="#9db4e8" stroke-opacity="0.32" stroke-width="1"/><line x1="620.12" y1="290.45" x2="600" y2="212" stroke="#6f9bff" stroke-opacity="0.12" stroke-width="1"/><line x1="758.75" y1="153.26" x2="757.26" y2="126.21" stroke="#9db4e8" stroke-opacity="0.33" stroke-width="1"/><line x1="758.75" y1="153.26" x2="600" y2="212" stroke="#6f9bff" stroke-opacity="0.12" stroke-width="1"/><line x1="732.74" y1="96.93" x2="757.26" y2="126.21" stroke="#9db4e8" stroke-opacity="0.32" stroke-width="1"/><line x1="732.74" y1="96.93" x2="600" y2="212" stroke="#6f9bff" stroke-opacity="0.12" stroke-width="1"/><line x1="520.3" y1="355.86" x2="600" y2="212" stroke="#6f9bff" stroke-opacity="0.12" stroke-width="1"/><line x1="477.72" y1="229.16" x2="423.97" y2="204.8" stroke="#9db4e8" stroke-opacity="0.31" stroke-width="1"/><line x1="807.05" y1="120.54" x2="757.26" y2="126.21" stroke="#9db4e8" stroke-opacity="0.31" stroke-width="1"/><line x1="807.05" y1="120.54" x2="600" y2="212" stroke="#6f9bff" stroke-opacity="0.12" stroke-width="1"/><line x1="690.32" y1="119.17" x2="670.83" y2="113.66" stroke="#9db4e8" stroke-opacity="0.34" stroke-width="1"/><line x1="590.62" y1="106.57" x2="581.06" y2="86.75" stroke="#9db4e8" stroke-opacity="0.33" stroke-width="1"/><line x1="590.62" y1="106.57" x2="600" y2="212" stroke="#6f9bff" stroke-opacity="0.12" stroke-width="1"/><line x1="581.06" y1="86.75" x2="583.79" y2="39.74" stroke="#9db4e8" stroke-opacity="0.32" stroke-width="1"/><line x1="583.79" y1="39.74" x2="600" y2="212" stroke="#6f9bff" stroke-opacity="0.12" stroke-width="1"/></g>
  <g filter="url(#soft)"><circle cx="537.88" cy="241.33" r="10.14" fill="#3b82f6" opacity="0.5"/><circle cx="620.12" cy="290.45" r="9.53" fill="#84cc16" opacity="0.5"/><circle cx="758.75" cy="153.26" r="11.41" fill="#d946ef" opacity="0.5"/><circle cx="523.38" cy="170.36" r="13.15" fill="#fb7185" opacity="0.5"/><circle cx="807.05" cy="120.54" r="10.9" fill="#f59e0b" opacity="0.5"/><circle cx="590.62" cy="106.57" r="9.36" fill="#ec4899" opacity="0.5"/><circle cx="757.26" cy="126.21" r="10.93" fill="#22c55e" opacity="0.5"/><circle cx="670.83" cy="113.66" r="12.43" fill="#0891b2" opacity="0.5"/><circle cx="583.79" cy="39.74" r="10.43" fill="#d946ef" opacity="0.5"/></g>
  <g><circle cx="537.88" cy="241.33" r="4.14" fill="#3b82f6" stroke="#07080e" stroke-width="1.1"/><circle cx="535.42" cy="177.56" r="4.81" fill="#10b981" stroke="#07080e" stroke-width="1.1"/><circle cx="644.64" cy="249.01" r="5.51" fill="#f59e0b" stroke="#07080e" stroke-width="1.1"/><circle cx="570.77" cy="165.39" r="5.87" fill="#ef4444" stroke="#07080e" stroke-width="1.1"/><circle cx="492.32" cy="202.9" r="7" fill="#8b5cf6" stroke="#07080e" stroke-width="1.1"/><circle cx="605.47" cy="150.74" r="5.27" fill="#06b6d4" stroke="#07080e" stroke-width="1.1"/><circle cx="735.94" cy="142.73" r="7.87" fill="#ec4899" stroke="#07080e" stroke-width="1.1"/><circle cx="450.13" cy="154.22" r="7.46" fill="#eab308" stroke="#07080e" stroke-width="1.1"/><circle cx="656.4" cy="124.21" r="7.26" fill="#22c55e" stroke="#07080e" stroke-width="1.1"/><circle cx="720.22" cy="213.02" r="6.84" fill="#a855f7" stroke="#07080e" stroke-width="1.1"/><circle cx="539.56" cy="303.71" r="5.79" fill="#14b8a6" stroke="#07080e" stroke-width="1.1"/><circle cx="786.22" cy="217.61" r="5.8" fill="#0891b2" stroke="#07080e" stroke-width="1.1"/><circle cx="620.12" cy="290.45" r="3.53" fill="#84cc16" stroke="#07080e" stroke-width="1.1"/><circle cx="758.75" cy="153.26" r="5.41" fill="#d946ef" stroke="#07080e" stroke-width="1.1"/><circle cx="523.38" cy="170.36" r="7.15" fill="#fb7185" stroke="#07080e" stroke-width="1.1"/><circle cx="732.74" cy="96.93" r="5.17" fill="#6f9bff" stroke="#07080e" stroke-width="1.1"/><circle cx="520.3" cy="355.86" r="3.47" fill="#3b82f6" stroke="#07080e" stroke-width="1.1"/><circle cx="477.72" cy="229.16" r="3.55" fill="#10b981" stroke="#07080e" stroke-width="1.1"/><circle cx="807.05" cy="120.54" r="4.9" fill="#f59e0b" stroke="#07080e" stroke-width="1.1"/><circle cx="690.32" cy="119.17" r="7.67" fill="#ef4444" stroke="#07080e" stroke-width="1.1"/><circle cx="884.3" cy="291.94" r="6.03" fill="#8b5cf6" stroke="#07080e" stroke-width="1.1"/><circle cx="423.97" cy="204.8" r="4.57" fill="#06b6d4" stroke="#07080e" stroke-width="1.1"/><circle cx="590.62" cy="106.57" r="3.36" fill="#ec4899" stroke="#07080e" stroke-width="1.1"/><circle cx="581.06" cy="86.75" r="5.21" fill="#eab308" stroke="#07080e" stroke-width="1.1"/><circle cx="757.26" cy="126.21" r="4.93" fill="#22c55e" stroke="#07080e" stroke-width="1.1"/><circle cx="659.64" cy="314.1" r="5.17" fill="#a855f7" stroke="#07080e" stroke-width="1.1"/><circle cx="519.68" cy="125.01" r="4.4" fill="#14b8a6" stroke="#07080e" stroke-width="1.1"/><circle cx="670.83" cy="113.66" r="6.43" fill="#0891b2" stroke="#07080e" stroke-width="1.1"/><circle cx="341.17" cy="239.71" r="7.95" fill="#84cc16" stroke="#07080e" stroke-width="1.1"/><circle cx="583.79" cy="39.74" r="4.43" fill="#d946ef" stroke="#07080e" stroke-width="1.1"/></g>

  <circle cx="600" cy="212" r="90" fill="url(#core)"/>
  <circle cx="600" cy="212" r="16" fill="#ffffff" filter="url(#soft)"/>
  <circle cx="600" cy="212" r="7.5" fill="#ffffff"/>

  <rect width="1200" height="420" fill="url(#vig)"/>
</svg>
